<svg width="10" height="21" viewBox="0 0 10 21" fill="none" xmlns="http://www.w3.org/2000/svg">
<path fill-rule="evenodd" clip-rule="evenodd" d="M0.350104 3.01337L7.21593 10.8318L0.350104 18.6502C-0.110981 19.1524 -0.119387 19.9573 0.341241 20.4595C0.801872 20.9618 1.54041 20.9524 2.00104 20.4501L9.64118 11.749C9.64663 11.7432 9.65345 11.7393 9.65913 11.733C9.88024 11.4921 9.99023 11.1813 9.99705 10.8676C9.99727 10.8551 10 10.843 10 10.8309C10 10.8189 9.9975 10.8063 9.99705 10.7942C9.99023 10.4806 9.88002 10.1698 9.65913 9.92881C9.65368 9.92301 9.64709 9.91866 9.64118 9.91287L2.00162 1.21297C1.54099 0.710721 0.802455 0.701307 0.341824 1.20355C-0.119261 1.7058 -0.110395 2.51083 0.350232 3.01308L0.350104 3.01337Z" fill="white"/>
</svg>
